# xmcd
#
# Track frame offsets: 
#        150
#        999
#        17591
#        20996
#        36648
#        38334
#        40923
#        57025
#        86363
#        95925
#        117261
#        128242
#        146423
#        167488
#        172111
#        193699
#        224259
#        242741
#        254236
#        272722
#        278031
#        286423
#        298928
#
# Disc length: 4337 seconds
#
# Revision: 0
# Processed by: cddbd v1.5.2PL0 Copyright (c) Steve Scherf et al.
# Submitted via: ExactAudioCopy v0.95a3
#
DISCID=5910ef17
DTITLE=Western Union - Sex A Billy Cd1
DYEAR=2002
DGENRE=Country
TTITLE0=Ansage 1
TTITLE1=Route 66
TTITLE2=Ansage2
TTITLE3=Auf der Autobahn
TTITLE4=Ansage3
TTITLE5=Ich ess Buletten
TTITLE6=www.heissesherz.de
TTITLE7=Ansage4
TTITLE8=Ich mag die Sonne ich mag den Mond
TTITLE9=Ich mag die Sonne etc.
TTITLE10=Ansage 5
TTITLE11=S O S
TTITLE12=Cottonfields back home
TTITLE13=Ansage6
TTITLE14=Gäb es für mich kein Morgen mehr
TTITLE15=Bandvorstellung
TTITLE16=Countrymusicfieber
TTITLE17=Der liebe Gott (intro)
TTITLE18=Der liebe Gott muss ein Cowboy sein
TTITLE19=Trinkspruch1
TTITLE20=Blues suede shohes
TTITLE21=Trinkspruch2
TTITLE22=L.I.E.B.E. 
EXTD=
EXTT0=
EXTT1=
EXTT2=
EXTT3=
EXTT4=
EXTT5=
EXTT6=
EXTT7=
EXTT8=
EXTT9=
EXTT10=
EXTT11=
EXTT12=
EXTT13=
EXTT14=
EXTT15=
EXTT16=
EXTT17=
EXTT18=
EXTT19=
EXTT20=
EXTT21=
EXTT22=
PLAYORDER=
